<svg xmlns="http://www.w3.org/2000/svg" xmlns:xlink="http://www.w3.org/1999/xlink" version="1.1" x="0px" y="0px" viewBox="0 0 100 125" enable-background="new 0 0 100 100" xml:space="preserve"><g><path d="M82,43.7V18c0-0.7-0.4-1.4-1-1.8c-0.6-0.4-1.4-0.3-2,0.1L59.3,28.8C56.3,28.3,53.2,28,50,28c0,0,0,0,0,0s0,0,0,0   c-3.2,0-6.3,0.3-9.3,0.8L21.1,16.3c-0.6-0.4-1.4-0.4-2-0.1c-0.6,0.4-1,1-1,1.8v25.7c-0.4,1.4-2,7.6-2,12.3c0,17.3,13,28,34,28   s34-10.7,34-28C84,51.3,82.4,45.1,82,43.7z M50,80c-14.1,0-24-5-28-14h7.4c1.1,0,2-0.9,2-2s-0.9-2-2-2h-8.7c-0.3-1-0.5-3-0.6-4H28   c1.1,0,2-0.9,2-2s-0.9-2-2-2h-7.9c0.4-4,1.8-9.4,1.8-9.5C22,44.4,22,44.2,22,44V21.6l17.2,11c0.2,0.1,0.5,0.2,0.8,0.3V38   c0,1.1,0.9,2,2,2s2-0.9,2-2v-5.6c1.3-0.2,2.6-0.3,4-0.3V40c0,1.1,0.9,2,2,2s2-0.9,2-2v-7.9c1.4,0.1,2.7,0.1,4,0.3V38   c0,1.1,0.9,2,2,2s2-0.9,2-2v-5.1c0.3,0,0.5-0.1,0.8-0.3l17.2-11V44c0,0.2,0,0.4,0.1,0.5c0,0.1,1.4,5.5,1.8,9.5H72c-1.1,0-2,0.9-2,2   s0.9,2,2,2h7.9c-0.1,1-0.3,3-0.6,4h-8.7c-1.1,0-2,0.9-2,2s0.9,2,2,2H78C74,75,64.1,80,50,80z"/><path d="M38,54c1.1,0,2-0.9,2-2v-4c0-1.1-0.9-2-2-2s-2,0.9-2,2v4C36,53.1,36.9,54,38,54z"/><path d="M62,46c-1.1,0-2,0.9-2,2v4c0,1.1,0.9,2,2,2s2-0.9,2-2v-4C64,46.9,63.1,46,62,46z"/><path d="M62,62c-1.1,0-2,0.9-2,2c0,3.2-3.1,4-4.9,4c-1.6,0-3.1-0.3-3.1-4c0-1.1-0.9-2-2-2s-2,0.9-2,2c0,3.7-1.6,4-3.1,4   c-1.8,0-4.9-0.8-4.9-4c0-1.1-0.9-2-2-2s-2,0.9-2,2c0,5.3,4.5,8,8.9,8c2.2,0,3.9-0.7,5.1-2c1.2,1.3,2.9,2,5.1,2c4.4,0,8.9-2.7,8.9-8   C64,62.9,63.1,62,62,62z"/></g><text x="0" y="115" fill="#000000" font-size="5px" font-weight="bold" font-family="'Helvetica Neue', Helvetica, Arial-Unicode, Arial, Sans-serif">Created by Alex Podolsky</text><text x="0" y="120" fill="#000000" font-size="5px" font-weight="bold" font-family="'Helvetica Neue', Helvetica, Arial-Unicode, Arial, Sans-serif">from the Noun Project</text></svg>