<svg xmlns="http://www.w3.org/2000/svg" version="1.1" viewBox="-5.0 -10.0 110.0 135.0">
 <path d="m83.52 32.262c-0.51562-0.94922-1.4531-1.5938-2.5195-1.7422-1.082-0.14453-2.168 0.24609-2.9102 1.0508-1.7578 1.8945-3.3281 3.9531-4.6914 6.1484-0.35156-0.058594-0.69141-0.10156-1-0.14062-1.2578-0.13672-2.5273-0.13672-3.7891 0-1.3516-2.1367-2.8984-4.1445-4.6211-6-0.73828-0.79688-1.8203-1.1914-2.8984-1.0469-1.0742 0.14062-2.0195 0.78906-2.5391 1.7383-0.12109 0.21094-2.8086 5.25-2.6094 13.398-3.3398-8.8203-10.672-19.391-26.441-18.648-1.1055 0.054688-1.957 0.99219-1.9062 2.0938 0.054688 1.1055 0.99219 1.9609 2.0977 1.9062 15.57-0.73047 21.512 11.82 23.699 19.82-2 5.7305 5 14.18 6.5312 15.891 0.73047 0.82812 1.9961 0.90625 2.8242 0.17578 0.82812-0.73438 0.90625-1.9961 0.17578-2.8281-2.8203-3.2383-6.3789-8.8906-5.8516-11.609l0.28906-0.80859c0.55078-1.5234 1.3047-2.9688 2.2422-4.2891l0.39844-0.57031v-0.69141c-0.22266-3.7852 0.36328-7.5742 1.7109-11.121 1.5625 1.7969 2.9492 3.7383 4.1406 5.8008l0.73828 1.2617 1.4219-0.30078c1.3125-0.27734 2.6602-0.35156 4-0.21875 0.64062 0.066406 1.2773 0.1875 1.8984 0.35938l1.5 0.39844 0.71875-1.2891c1.2148-2.1367 2.6328-4.1445 4.2422-6 1.5938 4.2461 2.1211 8.8203 1.5391 13.32v0.48828l0.17188 0.44922-0.003906 0.003907c0.83203 2.2852 1.1406 4.7266 0.90234 7.1484-1.5 18.32-24.77 32.691-27.738 34.449h-0.003907c-9.543-2.207-18.266-7.0703-25.168-14.02 10.898-15.781 0.76953-30.238 0.66016-30.391-0.64844-0.90234-1.9062-1.1094-2.8086-0.46094-0.90625 0.65234-1.1094 1.9102-0.46094 2.8125 2.4141 3.7148 3.6875 8.0625 3.6562 12.496s-1.3594 8.7578-3.8281 12.441c-0.69141-0.82812-1.3281-1.6602-1.8984-2.4492-6-8.2305-9.0586-18.078-8.2617-26.34 0.48047-5 2.3086-8.9102 5.3008-11.289l1-0.76172-0.23828-1.1992c-0.16016-0.82812-0.26953-1.5-0.33984-2.1094-0.38281-3.5117 0.21484-7.0625 1.7227-10.258 1.5078-3.1953 3.8711-5.9141 6.8242-7.8516 2.3555-1.5664 5.1172-2.4062 7.9414-2.4219 2.8281-0.015625 5.5977 0.79297 7.9688 2.332 1.5195 0.97656 2.9844 2.0391 4.3828 3.1797 1 0.76172 1.8906 1.4805 2.8594 2.1602 4 2.8203 10.469 5.6797 18.25 3.2188 0.30078-0.097657 0.62891-0.070313 0.91016 0.082031 0.28516 0.14453 0.5 0.40234 0.59766 0.70703 0.10156 0.30469 0.070312 0.63672-0.078125 0.92188-0.14844 0.28516-0.40234 0.50391-0.71094 0.60156-6.7891 2.1484-14 0.89062-20.359-3.5508-1-0.71875-2-1.5-3-2.2383v-0.003906c-1.3281-1.0781-2.7148-2.0781-4.1602-3-4.0664-2.625-9.2969-2.6016-13.34 0.0625-0.9375 0.60156-1.2109 1.8516-0.60938 2.7891 0.60156 0.9375 1.8516 1.2109 2.7891 0.60938 2.7344-1.8594 6.3281-1.8594 9.0586 0 1.3086 0.84375 2.5664 1.7656 3.7734 2.75 1 0.78125 2 1.5781 3.1406 2.3711 7.3906 5.1719 15.871 6.6289 23.891 4.0898h-0.003906c2.7617-0.875 4.293-3.8203 3.4219-6.582-0.875-2.7617-3.8203-4.293-6.582-3.418-6.1992 2-11.43-0.37891-14.719-2.6914-0.87891-0.60938-1.75-1.3008-2.6797-2-1.5156-1.2461-3.1055-2.3945-4.7617-3.4492-3.0117-1.9492-6.5312-2.9727-10.117-2.9492-3.5898 0.019531-7.0938 1.0938-10.082 3.0781-3.5859 2.3594-6.4531 5.6602-8.2812 9.543-1.8281 3.8789-2.5508 8.1914-2.0898 12.457 0 0.39062 0.10156 0.80078 0.17969 1.2383-3.3164 3.0312-5.3398 7.6328-5.8789 13.191-0.87891 9.2109 2.4883 20.09 9 29.102 5.3711 7.4219 15.359 17.129 32.43 21.25 0.25 0.058594 0.50391 0.089844 0.76172 0.089844 0.5625 0 1.1172-0.14844 1.6094-0.42969 1.1484-0.67187 28.281-16.551 30-37.781 0.26562-2.8555-0.074218-5.7344-1-8.4492 0.98828-9.5195-2.0312-15.43-2.3906-16.078z"/>
 <path d="m77.309 51.891c0-1.7305-0.80859-3.1289-1.8086-3.1289s-1.8203 1.3984-1.8203 3.1289 0.80859 3.1094 1.8203 3.1094 1.8086-1.3789 1.8086-3.1094z"/>
 <path d="m63.441 48.762c-1 0-1.8203 1.3984-1.8203 3.1289s0.82031 3.1094 1.8203 3.1094 1.8086-1.3984 1.8086-3.1289c0-1.7305-0.80859-3.1094-1.8086-3.1094z"/>
 <path d="m71.191 54.238c0-0.41016-1-0.75-2.3398-0.75-1.3398 0-2.3281 0.33984-2.3281 0.75h-0.003907c0.33203 1.0508 1.2422 1.8086 2.332 1.9531 1.0898-0.14453 2.0039-0.90234 2.3398-1.9531z"/>
<text x="0.0" y="117.5" font-size="5.0" font-weight="bold" font-family="Arbeit Regular, Helvetica, Arial-Unicode, Arial, Sans-serif" fill="#000000">Created by Kim Sun Young</text><text x="0.0" y="122.5" font-size="5.0" font-weight="bold" font-family="Arbeit Regular, Helvetica, Arial-Unicode, Arial, Sans-serif" fill="#000000">from Noun Project</text></svg>