<svg xmlns="http://www.w3.org/2000/svg" id="Layer_2" viewBox="0 0 218.43 64.58"><defs><style>.cls-1{fill:#fff;}.cls-2{fill:#81898e;}.cls-3{fill:#d3903a;}</style></defs><g id="Layer_2-2"><g><g><path class="cls-1" d="M88.3,4.08l-3.5,3.15c-1.23-1.74-2.48-2.62-3.75-2.62-.62,0-1.13,.17-1.52,.51-.39,.34-.59,.72-.59,1.14s.14,.83,.42,1.2c.38,.5,1.54,1.59,3.46,3.25,1.8,1.54,2.89,2.51,3.28,2.91,.96,.99,1.64,1.93,2.04,2.83,.4,.9,.6,1.88,.6,2.95,0,2.08-.7,3.79-2.11,5.14-1.41,1.35-3.24,2.03-5.5,2.03-1.77,0-3.31-.44-4.62-1.32-1.31-.88-2.43-2.27-3.37-4.16l3.97-2.44c1.19,2.24,2.57,3.35,4.12,3.35,.81,0,1.49-.24,2.04-.72s.83-1.04,.83-1.67c0-.57-.21-1.15-.62-1.72-.42-.57-1.33-1.45-2.75-2.63-2.7-2.25-4.45-3.98-5.24-5.2-.79-1.22-1.18-2.44-1.18-3.66,0-1.75,.66-3.26,1.97-4.52s2.93-1.88,4.85-1.88c1.24,0,2.42,.29,3.54,.88,1.12,.58,2.33,1.65,3.64,3.2h-.01Z"></path><path class="cls-1" d="M100.02,.64h13.54V5.35h-8.85v4.58h8.85v4.63h-8.85v6.66h8.85v4.73h-13.54V.64Z"></path><path class="cls-1" d="M125.51,.64h4.53l10.61,16.65V.64h4.72V25.95h-4.54l-10.6-16.6V25.95h-4.72s0-25.31,0-25.31Z"></path><path class="cls-1" d="M170.2,4.08l-3.5,3.15c-1.23-1.74-2.48-2.62-3.75-2.62-.62,0-1.13,.17-1.52,.51-.39,.34-.59,.72-.59,1.14s.14,.83,.42,1.2c.38,.5,1.54,1.59,3.46,3.25,1.8,1.54,2.89,2.51,3.28,2.91,.96,.99,1.63,1.93,2.03,2.83,.4,.9,.6,1.88,.6,2.95,0,2.08-.7,3.79-2.11,5.14-1.41,1.35-3.24,2.03-5.5,2.03-1.77,0-3.31-.44-4.62-1.32s-2.43-2.27-3.37-4.16l3.97-2.44c1.19,2.24,2.57,3.35,4.12,3.35,.81,0,1.49-.24,2.04-.72,.55-.48,.83-1.04,.83-1.67,0-.57-.21-1.15-.63-1.72s-1.33-1.45-2.75-2.63c-2.7-2.25-4.45-3.98-5.24-5.2-.79-1.22-1.18-2.44-1.18-3.66,0-1.75,.66-3.26,1.97-4.52s2.93-1.88,4.85-1.88c1.24,0,2.42,.29,3.54,.88,1.12,.58,2.33,1.65,3.64,3.2h0Z"></path><path class="cls-1" d="M178.53,.64h5.07l4.63,9.1,4.61-9.1h5l-7.26,14.35v10.96h-4.75V14.99l-7.29-14.35h-.01Z"></path><path class="cls-1" d="M218,4.08l-3.5,3.15c-1.23-1.74-2.48-2.62-3.75-2.62-.62,0-1.13,.17-1.52,.51-.39,.34-.59,.72-.59,1.14s.14,.83,.42,1.2c.38,.5,1.54,1.59,3.46,3.25,1.8,1.54,2.89,2.51,3.28,2.91,.96,.99,1.63,1.93,2.03,2.83,.4,.9,.6,1.88,.6,2.95,0,2.08-.7,3.79-2.11,5.14-1.41,1.35-3.24,2.03-5.5,2.03-1.77,0-3.31-.44-4.62-1.32s-2.43-2.27-3.37-4.16l3.97-2.44c1.19,2.24,2.57,3.35,4.12,3.35,.81,0,1.49-.24,2.04-.72,.55-.48,.83-1.04,.83-1.67,0-.57-.21-1.15-.63-1.72s-1.33-1.45-2.75-2.63c-2.7-2.25-4.45-3.98-5.24-5.2-.79-1.22-1.18-2.44-1.18-3.66,0-1.75,.66-3.26,1.97-4.52s2.93-1.88,4.85-1.88c1.24,0,2.42,.29,3.54,.88,1.12,.58,2.33,1.65,3.64,3.2h0Z"></path></g><g><path class="cls-1" d="M74.59,33.49h1.92v2.72c.77-1.04,1.62-1.82,2.55-2.34s1.94-.78,3.04-.78,2.1,.29,2.96,.87c.86,.58,1.5,1.36,1.91,2.33,.41,.98,.62,2.5,.62,4.57v7.82h-1.92v-7.25c0-1.75-.07-2.92-.21-3.51-.22-1.01-.65-1.76-1.28-2.27-.63-.51-1.45-.76-2.46-.76-1.16,0-2.2,.39-3.12,1.17-.92,.78-1.52,1.75-1.81,2.91-.18,.75-.27,2.13-.27,4.14v5.57h-1.92v-15.2h-.01Z"></path><path class="cls-1" d="M107.1,43.65l1.62,.87c-.53,1.06-1.14,1.92-1.84,2.57-.69,.65-1.48,1.15-2.34,1.49-.87,.34-1.85,.51-2.95,.51-2.43,0-4.33-.81-5.7-2.44-1.37-1.62-2.06-3.46-2.06-5.51,0-1.93,.58-3.65,1.74-5.16,1.47-1.92,3.44-2.88,5.91-2.88s4.57,.98,6.08,2.95c1.08,1.39,1.63,3.12,1.64,5.2h-13.4c.04,1.77,.59,3.21,1.66,4.34,1.07,1.13,2.39,1.69,3.96,1.69,.76,0,1.5-.13,2.21-.4,.72-.27,1.33-.63,1.83-1.07,.5-.45,1.05-1.16,1.63-2.16h0Zm0-4.09c-.26-1.04-.63-1.88-1.12-2.5-.49-.62-1.14-1.13-1.94-1.51-.8-.38-1.65-.57-2.54-.57-1.46,0-2.72,.48-3.77,1.44-.77,.7-1.35,1.75-1.74,3.14h11.11Z"></path><path class="cls-1" d="M116.99,27.85h1.92v5.64h3.04v1.69h-3.04v13.51h-1.92v-13.51h-2.61v-1.69h2.61v-5.64Z"></path><path class="cls-1" d="M127.79,33.49h1.97l4.57,11.04,4.75-11.04h.35l4.78,11.04,4.65-11.04h1.99l-6.47,15.2h-.36l-4.76-10.88-4.76,10.88h-.36l-6.36-15.2h0Z"></path><path class="cls-1" d="M162.98,33.1c2.29,0,4.2,.85,5.71,2.54,1.37,1.55,2.06,3.38,2.06,5.49s-.73,3.98-2.17,5.57c-1.45,1.59-3.31,2.38-5.59,2.38s-4.15-.79-5.6-2.38c-1.45-1.59-2.17-3.44-2.17-5.57s.69-3.93,2.06-5.48c1.51-1.7,3.42-2.56,5.72-2.56h-.02Zm0,1.92c-1.59,0-2.96,.6-4.11,1.8-1.14,1.2-1.72,2.65-1.72,4.36,0,1.1,.26,2.12,.78,3.07s1.23,1.68,2.12,2.2,1.86,.78,2.93,.78,2.04-.26,2.93-.78,1.59-1.25,2.12-2.2c.52-.95,.78-1.97,.78-3.07,0-1.7-.57-3.16-1.72-4.36s-2.52-1.8-4.1-1.8h0Z"></path><path class="cls-1" d="M177.41,33.49h1.96v2.22c.58-.88,1.2-1.53,1.85-1.96,.65-.43,1.32-.65,2.03-.65,.53,0,1.09,.17,1.7,.52l-1,1.65c-.4-.18-.74-.27-1.01-.27-.64,0-1.26,.27-1.85,.8-.59,.54-1.05,1.37-1.36,2.49-.24,.87-.36,2.62-.36,5.25v5.14h-1.96v-15.2h0Z"></path><path class="cls-1" d="M191.14,27.63h1.92v12l6.91-6.13h2.81l-8.19,7.25,8.67,7.95h-2.7l-7.5-6.84v6.84h-1.92V27.63Z"></path><path class="cls-1" d="M217.31,35.16l-1.23,1.3c-1.03-1.02-2.03-1.52-3.01-1.52-.62,0-1.16,.21-1.6,.63-.44,.42-.67,.91-.67,1.47,0,.49,.18,.96,.55,1.41,.37,.46,1.13,.99,2.3,1.61,1.43,.75,2.4,1.48,2.91,2.18,.5,.71,.75,1.5,.75,2.39,0,1.25-.43,2.31-1.29,3.17-.86,.87-1.93,1.3-3.22,1.3-.86,0-1.68-.19-2.46-.57-.78-.38-1.43-.91-1.94-1.58l1.2-1.4c.98,1.13,2.02,1.69,3.12,1.69,.77,0,1.42-.25,1.96-.75,.54-.5,.81-1.09,.81-1.77,0-.56-.18-1.06-.54-1.49s-1.16-.97-2.41-1.62c-1.34-.71-2.26-1.41-2.74-2.1-.48-.69-.73-1.48-.73-2.36,0-1.15,.39-2.11,1.16-2.88,.77-.76,1.75-1.15,2.93-1.15,1.37,0,2.75,.68,4.14,2.05h0Z"></path></g><path class="cls-2" d="M213.68,64.23c0,.1,.09,.2,.19,.2h.51c.1,0,.19-.09,.19-.2v-3.53l2.74-5.2c.04-.08,0-.17-.11-.17h-.62c-.11,0-.23,.06-.28,.17l-1.17,2.35-.95,2.09-.99-2.09-1.11-2.35c-.06-.1-.18-.17-.29-.17h-.62c-.09,0-.14,.09-.1,.17l2.64,5.2v3.53h-.03Zm-10.05-7.59c1.13,2.26,2.75,4.83,4.34,7.61,.06,.1,.18,.17,.29,.17h.55c.11,0,.2-.09,.2-.2v-8.7c0-.1-.09-.2-.2-.2h-.45c-.11,0-.2,.09-.2,.2v4.21l.05,3.36c-1.12-2.25-2.84-5.05-4.33-7.6-.06-.1-.18-.17-.31-.17h-.59c-.1,0-.19,.09-.19,.2v8.7c0,.1,.09,.2,.19,.2h.47c.1,0,.2-.09,.2-.2v-4.27l-.04-3.31h.02Zm-6.49-.46h.03l.46,1.62,.92,2.94h-2.78l.89-2.94,.48-1.62Zm3.31,8.24c.1,0,.17-.09,.13-.18l-2.85-8.73c-.04-.1-.14-.18-.25-.18h-.61c-.13,0-.23,.08-.27,.18l-2.84,8.73c-.04,.09,.04,.18,.13,.18h.53c.11,0,.22-.06,.27-.18,.19-.65,.84-2.65,.87-2.74h3.2l.88,2.74c.04,.1,.14,.18,.25,.18h.56Zm-10.62-4.53c-.36,0-.7-.04-.99-.09v-3.7c.25-.04,.65-.05,1.12-.05,1.52,0,2.32,.49,2.32,1.86s-.9,1.99-2.45,1.99m-.99,.67c.37,.06,.9,.06,1.32,.06,1.8,0,3.03-.96,3.03-2.77,0-1.66-1.13-2.57-2.97-2.57-.78,0-1.45,.03-2.07,.09-.1,0-.19,.12-.19,.23v8.61c0,.1,.09,.2,.19,.2h.48c.1,0,.2-.09,.2-.2v-3.66h.01Zm-10.79-3.98l2.52,7.67c.04,.1,.14,.18,.25,.18h.38c.11,0,.22-.08,.25-.18l2.56-7.67,.13,3.9,.14,3.75c0,.1,.1,.2,.2,.2h.48c.1,0,.2-.09,.18-.2l-.36-8.7c0-.1-.1-.2-.22-.2h-.74c-.11,0-.22,.08-.27,.18l-1.6,4.7-.93,2.95-.94-2.95-1.6-4.7c-.04-.1-.15-.18-.27-.18h-.74c-.1,0-.2,.09-.22,.2l-.37,8.7c0,.1,.08,.2,.18,.2h.46c.1,0,.19-.09,.2-.2l.17-3.75,.14-3.9h.02Zm-4.13,3.34c0,2-.88,3.9-2.83,3.9s-2.83-1.88-2.83-3.89,.79-3.99,2.83-3.99,2.83,1.95,2.83,3.98m-6.6,.03c0,2.72,1.46,4.63,3.77,4.63s3.76-1.88,3.76-4.64-1.42-4.74-3.76-4.74-3.77,1.95-3.77,4.75m-3.57,3.85c-2.1,0-3.22-1.62-3.22-3.87s1.18-3.95,3.27-3.95c.66,0,1.27,.12,1.76,.31,.11,.03,.22-.03,.23-.13l.08-.36c.03-.1-.04-.23-.14-.27-.39-.16-1.04-.31-1.94-.31-2.67,0-4.19,2.06-4.19,4.74,0,2.86,1.63,4.61,4.02,4.61,.85,0,1.6-.14,2.1-.32,.1-.04,.17-.17,.15-.27l-.06-.38c-.03-.1-.11-.16-.23-.12-.5,.21-1.18,.32-1.83,.32m-14.79-4.13v-3.56c.25-.04,.65-.08,1.13-.08,1.5,0,2.31,.46,2.31,1.82,0,1.11-.73,1.82-1.96,1.82,0,0-1.48,0-1.48,0Zm2.51,.51c1.11-.3,1.85-1.14,1.85-2.4,0-1.53-.98-2.47-2.95-2.47-.69,0-1.44,.03-2.09,.09-.1,0-.19,.12-.19,.23v8.61c0,.1,.09,.2,.19,.2h.48c.1,0,.2-.09,.2-.2v-3.85h1.67l1.88,3.87c.06,.1,.18,.17,.29,.17h.59c.09,0,.14-.09,.1-.17l-2.02-4.09h0Zm-6.18-4.06c.1,0,.22-.09,.22-.2l.04-.38c0-.1-.08-.19-.19-.19h-4.2c-.1,0-.19,.09-.19,.19v8.71c0,.1,.09,.19,.19,.19h4.33c.1,0,.2-.09,.2-.19l.04-.36c0-.1-.08-.19-.18-.19h-3.69v-3.59h3.12c.1,0,.2-.09,.2-.2l.04-.36c0-.1-.08-.21-.18-.21h-3.18v-3.22h3.43Zm-12.39-.2c0,.1,.08,.2,.18,.2h2.41v8.13c0,.1,.09,.2,.19,.2h.51c.11,0,.2-.09,.2-.2v-8.13h2.34c.1,0,.22-.09,.22-.2l.04-.38c0-.1-.08-.19-.19-.19h-5.65c-.11,0-.2,.09-.22,.19l-.03,.38h0Zm-2.55,6.24c0,1.03-.75,1.66-1.9,1.66-.68,0-1.36-.17-1.91-.44-.09-.05-.2,0-.22,.1l-.09,.39c-.03,.1,.04,.23,.13,.27,.53,.26,1.32,.43,2.04,.43,1.81,0,2.86-1.05,2.86-2.49,0-3.08-4-2.27-4-4.63,0-.75,.59-1.48,1.68-1.48,.69,0,1.25,.16,1.67,.35,.1,.04,.2,0,.23-.12l.09-.39c0-.1-.04-.23-.14-.27-.46-.17-1.07-.32-1.8-.32-1.45,0-2.63,.88-2.63,2.31,0,2.98,3.99,2.09,3.99,4.63m-9.21-5.95h.03l.46,1.62,.92,2.94h-2.78l.89-2.94,.48-1.62Zm3.31,8.24c.1,0,.17-.09,.13-.18l-2.85-8.73c-.04-.1-.14-.18-.25-.18h-.61c-.13,0-.23,.08-.27,.18l-2.84,8.73c-.04,.09,.04,.18,.13,.18h.53c.11,0,.22-.06,.27-.18,.19-.65,.84-2.65,.87-2.74h3.2l.88,2.74c.04,.1,.14,.18,.25,.18h.56Zm-15.85-7.85l2.52,7.67c.04,.1,.14,.18,.26,.18h.38c.11,0,.22-.08,.25-.18l2.56-7.67,.13,3.9,.14,3.75c.01,.1,.1,.2,.2,.2h.48c.1,0,.2-.09,.18-.2l-.36-8.7c-.01-.1-.1-.2-.22-.2h-.74c-.11,0-.22,.08-.27,.18l-1.6,4.7-.93,2.95-.94-2.95-1.6-4.7c-.04-.1-.15-.18-.27-.18h-.74c-.1,0-.2,.09-.22,.2l-.37,8.7c-.01,.1,.08,.2,.18,.2h.46c.1,0,.19-.09,.2-.2l.17-3.75,.14-3.9h.01Zm-6.11,3.38c-.1,0-.2,.09-.2,.19l-.04,.38c0,.1,.08,.19,.18,.19h1.62v2.81c-.37,.16-.85,.25-1.58,.25-2.08,0-3.27-1.59-3.27-3.88s1.21-3.89,3.34-3.89c.74,0,1.32,.12,1.85,.31,.09,.04,.19,0,.22-.12l.08-.39c.03-.1-.04-.23-.14-.26-.47-.17-1.16-.32-1.97-.32-2.81,0-4.29,2.12-4.29,4.69,0,2.96,1.71,4.61,4.12,4.61,.98,0,1.8-.18,2.34-.39,.11-.04,.19-.14,.19-.26v-3.73c0-.1-.09-.19-.2-.19h-2.25Zm-8.89-3.77h.03l.46,1.62,.92,2.94h-2.78l.89-2.94,.48-1.62Zm3.31,8.24c.1,0,.17-.09,.13-.18l-2.85-8.73c-.04-.1-.14-.18-.25-.18h-.61c-.13,0-.23,.08-.27,.18l-2.84,8.73c-.04,.09,.04,.18,.13,.18h.54c.11,0,.22-.06,.27-.18,.19-.65,.84-2.65,.87-2.74h3.2l.88,2.74c.04,.1,.14,.18,.25,.18h.55Zm-13.06-8.52c-.01,.1,.08,.2,.18,.2h2.41v8.13c0,.1,.09,.2,.19,.2h.51c.11,0,.2-.09,.2-.2v-8.13h2.34c.1,0,.22-.09,.22-.2l.04-.38c0-.1-.08-.19-.19-.19h-5.65c-.11,0-.2,.09-.22,.19,0,0-.03,.38-.03,.38Zm-7.91,.29h.03l.46,1.62,.92,2.94h-2.78l.89-2.94,.48-1.62Zm3.31,8.24c.1,0,.17-.09,.13-.18l-2.85-8.73c-.04-.1-.14-.18-.25-.18h-.61c-.13,0-.23,.08-.27,.18l-2.84,8.73c-.04,.09,.04,.18,.13,.18h.53c.11,0,.22-.06,.27-.18,.19-.65,.84-2.65,.87-2.74h3.2l.88,2.74c.04,.1,.14,.18,.25,.18h.56Z"></path><g><g><path class="cls-3" d="M40.44,2.48c-3.23-1.19-6.73-1.84-10.38-1.84s-7.14,.65-10.38,1.84C11.43,5.51,4.88,12.06,1.84,20.32c-1.19,3.23-1.84,6.73-1.84,10.38s.65,7.14,1.84,10.38c4.23,11.49,15.26,19.68,28.22,19.68,16.6,0,30.06-13.46,30.06-30.06,0-12.95-8.19-23.99-19.68-28.22m-10.38,56.74c-15.59,0-28.22-12.63-28.22-28.22S14.47,2.78,30.06,2.78s28.22,12.63,28.22,28.22-12.63,28.22-28.22,28.22"></path><path class="cls-3" d="M30.06,3.64C15.12,3.64,3.01,15.75,3.01,30.69s12.11,27.05,27.05,27.05,27.05-12.11,27.05-27.05S45,3.64,30.06,3.64m0,52.22c-7.63,0-14.45-3.44-19.02-8.84,2.01,.53,5.78,.76,11.16-.58,.45-.15,.99-.34,1.58-.58-1.22-.52-2.37-1.19-3.42-1.99-2.77,1.11-6.4,1.3-11.17,.65-2.54-3.9-4.02-8.56-4.02-13.56,0-13.75,11.14-24.89,24.89-24.89,7.26,0,13.8,3.11,18.35,8.07-6.03-1.05-10.67-.28-14.16,.99,1.36,.35,2.97,1.18,4.12,1.97,3.84-1.31,8.26-1.37,11.98-.57,2.9,4.07,4.6,9.04,4.6,14.41,0,13.75-11.14,24.89-24.89,24.89"></path></g><path class="cls-3" d="M38.26,17.16c-2.06,.7-4.15,1.43-5.53,3.11-1.67,1.83-.99,5.16,.63,10.9,2.13,8.49-4.75,12.7-9.15,14.53,1.84,.74,3.85,1.15,5.96,1.15,8.81,0,15.95-7.14,15.95-15.95,0-5.85-3.15-10.96-7.85-13.74"></path><path class="cls-3" d="M26.94,35.9c.98-3.99-2.07-8.41-1.13-12.24,.79-3.12,3.19-6.35,7.74-8.23,.06-.02,.12-.05,.18-.07,.17-.07,.35-.14,.52-.2-1.3-.34-2.67-.51-4.07-.51-8.98,0-16.27,7.28-16.27,16.27,0,5.3,2.53,10,6.46,12.97,.11-.05,.22-.1,.33-.15,3.09-1.36,5.05-3.92,6.25-7.84"></path></g></g></g></svg>